# xmcd
#
# Track frame offsets:
#	150
#	15612
#	36865
#	109890
#	124235
#	202380
#	214600
#	224990
#	247650
#	256432
#	265610
#	279355
#
# Disc length: 3904 seconds
#
# Revision: 1
# Processed by: cddbd v1.5.2PL0 Copyright (c) Steve Scherf et al.
# Submitted via: EZCDAudioConverter 7.0.9.1
#
DISCID=b90f3e0c
DTITLE=Fleetwood Mac - Men of the World: The Early Years [CD2)
DYEAR=2005
DGENRE=Blues
TTITLE0=World in Harmony
TTITLE1=The Green Manalishi (With the Two‐Pronged Crown)
TTITLE2=Underway
TTITLE3=Like It This Way
TTITLE4=The Madge Sessions No. 1
TTITLE5=The Madge Sessions No. 2
TTITLE6=Farewell
TTITLE7=October Jam No. 1
TTITLE8=October Jam No. 2
TTITLE9=Tell Me From the Start
TTITLE10=Blues in B Flat Minor
TTITLE11=Man of the World
EXTD=
EXTT0=
EXTT1=
EXTT2=
EXTT3=
EXTT4=
EXTT5=
EXTT6=
EXTT7=
EXTT8=
EXTT9=
EXTT10=
EXTT11=
PLAYORDER=
